<mxfile host="app.diagrams.net" modified="2023-01-24T22:03:41.069Z" agent="5.0 (Windows NT 10.0; Win64; x64) AppleWebKit/537.36 (KHTML, like Gecko) Chrome/109.0.0.0 Safari/537.36" etag="syap3mR45250BUh6ITzr" version="20.8.11" type="github">
  <diagram name="Page-1" id="aRESo3SaYB-nwoUXMpyA">
    <mxGraphModel dx="1709" dy="923" grid="1" gridSize="10" guides="1" tooltips="1" connect="1" arrows="1" fold="1" page="1" pageScale="1" pageWidth="850" pageHeight="1100" math="0" shadow="0">
      <root>
        <mxCell id="0" />
        <mxCell id="1" parent="0" />
        <mxCell id="7zWZa1i-gxuSiSrAHKnu-2" value="" style="rounded=0;whiteSpace=wrap;html=1;" vertex="1" parent="1">
          <mxGeometry y="10" width="470" height="80" as="geometry" />
        </mxCell>
        <mxCell id="7zWZa1i-gxuSiSrAHKnu-3" value="&lt;font style=&quot;font-size: 43px;&quot;&gt;Visions&lt;/font&gt;" style="text;strokeColor=none;fillColor=none;html=1;fontSize=24;fontStyle=1;verticalAlign=middle;align=left;" vertex="1" parent="1">
          <mxGeometry x="80" y="10" width="390" height="50" as="geometry" />
        </mxCell>
        <UserObject label="&lt;font style=&quot;font-size: 16px;&quot;&gt;VIS: 02-1997&lt;/font&gt;" placeholders="1" name="Variable" id="7zWZa1i-gxuSiSrAHKnu-4">
          <mxCell style="text;html=1;strokeColor=none;fillColor=none;align=left;verticalAlign=middle;whiteSpace=wrap;overflow=hidden;" vertex="1" parent="1">
            <mxGeometry x="80" y="60" width="390" height="30" as="geometry" />
          </mxCell>
        </UserObject>
        <mxCell id="7zWZa1i-gxuSiSrAHKnu-5" value="" style="shape=image;verticalLabelPosition=bottom;labelBackgroundColor=default;verticalAlign=top;aspect=fixed;imageAspect=0;image=https://cdn-cardmavin.mavin.io/wp-content/uploads/2017/02/Visions.png;" vertex="1" parent="1">
          <mxGeometry x="10" y="15" width="64.4" height="70" as="geometry" />
        </mxCell>
      </root>
    </mxGraphModel>
  </diagram>
</mxfile>
